<?xml version="1.0" encoding="utf-8"?>
<!-- Generator: Adobe Illustrator 16.0.0, SVG Export Plug-In . SVG Version: 6.00 Build 0)  -->
<!DOCTYPE svg PUBLIC "-//W3C//DTD SVG 1.1//EN" "http://www.w3.org/Graphics/SVG/1.1/DTD/svg11.dtd">
<svg version="1.1" id="Layer_1" xmlns="http://www.w3.org/2000/svg" xmlns:xlink="http://www.w3.org/1999/xlink" x="0px" y="0px"
	 width="150px" height="50px" viewBox="0 0 150 50" enable-background="new 0 0 150 50" xml:space="preserve">
<path fill="#999999" d="M131.268,11.853c-9.242,0-16.732,7.491-16.732,16.732s7.49,16.733,16.732,16.733
	c9.24,0,16.732-7.492,16.732-16.733S140.508,11.853,131.268,11.853z M131.318,41.783c-6.084,0-11.016-4.932-11.016-11.015
	c0-6.085,4.932-11.018,11.016-11.018c6.086,0,11.017,4.933,11.017,11.018C142.335,36.852,137.404,41.783,131.318,41.783z
	 M129.293,10.813h3.429l6.133-6.132h-5.718L129.293,10.813z"/>
<g>
	<path fill="#999999" d="M28.66,18.766c2.075,0,3.274,1.032,3.274,2.818c0,1.859-1.199,2.927-3.274,2.927h-2.195v2.65h-0.959v-8.395
		H28.66z M26.465,23.587h2.159c1.511,0,2.387-0.671,2.387-1.979c0-1.271-0.875-1.919-2.387-1.919h-2.159V23.587z"/>
	<path fill="#999999" d="M41.533,22.964c0,2.363-1.943,4.246-4.39,4.246c-2.458,0-4.401-1.883-4.401-4.246
		c0-2.375,1.943-4.222,4.401-4.222C39.59,18.742,41.533,20.601,41.533,22.964z M33.713,22.964c0,1.847,1.559,3.322,3.43,3.322
		s3.406-1.475,3.406-3.322c0-1.847-1.535-3.31-3.406-3.31S33.713,21.117,33.713,22.964z"/>
	<path fill="#999999" d="M50.329,27.161l-2.267-7.076l-2.291,7.076h-0.983l-2.807-8.395h1.032l2.303,7.281l2.279-7.269l0.959-0.012
		l2.303,7.281l2.278-7.281h0.996l-2.818,8.395H50.329z"/>
	<path fill="#999999" d="M56.345,19.69v2.758h4.233v0.923h-4.233v2.878h4.893v0.911h-5.853v-8.395h5.697v0.924H56.345z"/>
	<path fill="#999999" d="M66.951,24.487c-0.18,0.012-0.372,0.024-0.564,0.024h-2.23v2.65h-0.959v-8.395h3.19
		c2.099,0,3.311,1.032,3.311,2.818c0,1.392-0.672,2.327-1.883,2.723l1.967,2.854H68.69L66.951,24.487z M66.387,23.587
		c1.523,0,2.387-0.671,2.387-1.979c0-1.271-0.863-1.919-2.387-1.919h-2.23v3.897H66.387z"/>
	<path fill="#999999" d="M72.833,19.69v2.758h4.234v0.923h-4.234v2.878h4.893v0.911h-5.853v-8.395h5.697v0.924H72.833z"/>
	<path fill="#999999" d="M83.079,18.766c2.446,0,4.317,1.811,4.317,4.198s-1.883,4.197-4.354,4.197h-3.357v-8.395H83.079z
		 M80.645,26.25h2.446c1.871,0,3.335-1.403,3.335-3.274c0-1.883-1.488-3.286-3.371-3.286h-2.41V26.25z"/>
	<path fill="#999999" d="M95.979,18.766c1.691,0,2.711,0.78,2.711,2.099c0,0.983-0.564,1.691-1.548,1.895
		c1.212,0.18,1.919,0.971,1.919,2.123c0,1.428-1.127,2.278-3.022,2.278H92.44v-8.395H95.979z M93.4,22.388h2.529
		c1.128,0,1.787-0.492,1.787-1.367c0-0.852-0.659-1.331-1.787-1.331H93.4V22.388z M93.4,26.25h2.529c1.367,0,2.16-0.54,2.16-1.499
		c0-0.912-0.793-1.451-2.16-1.451H93.4V26.25z"/>
	<path fill="#999999" d="M104.006,27.161h-0.947v-2.842l-3.25-5.553h0.996l2.723,4.378l2.686-4.378h0.984l-3.191,5.517V27.161z"/>
	<path fill="#999999" d="M12.757,30.11l-1.235,1.463c-0.552-0.672-1.368-1.092-2.111-1.092c-1.332,0-2.339,1.056-2.339,2.435
		c0,1.403,1.007,2.471,2.339,2.471c0.708,0,1.523-0.384,2.111-0.983l1.247,1.319c-0.899,0.924-2.231,1.535-3.466,1.535
		c-2.531,0-4.414-1.858-4.414-4.317c0-2.423,1.931-4.246,4.486-4.246C10.622,28.694,11.917,29.247,12.757,30.11z"/>
	<path fill="#999999" d="M13.745,37.162v-8.396h2.135v8.396H13.745z"/>
	<path fill="#999999" d="M21.447,30.481v6.681h-2.135v-6.681h-2.507v-1.727h7.172v1.727H21.447z"/>
	<path fill="#999999" d="M28.707,34.8h-0.06h-1.619v2.362h-2.135v-8.396h3.754c2.219,0,3.49,1.056,3.49,2.927
		c0,1.283-0.54,2.207-1.523,2.698l1.763,2.771h-2.422L28.707,34.8z M28.646,33.12c0.924,0,1.463-0.468,1.463-1.355
		c0-0.875-0.54-1.318-1.463-1.318h-1.619v2.674H28.646z"/>
	<path fill="#999999" d="M41.137,33.636c0,2.219-1.475,3.622-3.826,3.622c-2.363,0-3.874-1.403-3.874-3.622v-4.869h2.135v4.869
		c0,1.14,0.731,1.835,1.751,1.835c1.007,0,1.691-0.695,1.691-1.835v-4.869h2.123V33.636z"/>
	<path fill="#999999" d="M49.213,29.606l-0.804,1.667c-0.887-0.516-2.003-0.876-2.687-0.876c-0.552,0-0.923,0.204-0.923,0.611
		c0,1.452,4.438,0.624,4.438,3.659c0,1.679-1.487,2.566-3.358,2.566c-1.403,0-2.843-0.528-3.838-1.344l0.827-1.643
		c0.864,0.755,2.159,1.259,3.035,1.259c0.671,0,1.091-0.252,1.091-0.731c0-1.487-4.438-0.6-4.438-3.574
		c0-1.547,1.331-2.53,3.346-2.53C47.115,28.671,48.35,29.042,49.213,29.606z"/>
	<path fill="#999999" d="M56.799,28.767c2.638,0,4.461,1.703,4.461,4.198c0,2.482-1.847,4.197-4.545,4.197h-3.526v-8.396H56.799z
		 M55.324,35.459h1.523c1.307,0,2.243-1.008,2.243-2.482c0-1.487-0.983-2.507-2.339-2.507h-1.427V35.459z"/>
	<path fill="#999999" d="M64.528,30.446v1.667h4.005v1.679h-4.005v1.691h4.569v1.679h-6.705v-8.396h6.573v1.68H64.528z"/>
	<path fill="#999999" d="M77.018,29.606l-0.805,1.667c-0.887-0.516-2.002-0.876-2.686-0.876c-0.552,0-0.923,0.204-0.923,0.611
		c0,1.452,4.438,0.624,4.438,3.659c0,1.679-1.487,2.566-3.358,2.566c-1.403,0-2.843-0.528-3.838-1.344l0.827-1.643
		c0.864,0.755,2.159,1.259,3.035,1.259c0.671,0,1.091-0.252,1.091-0.731c0-1.487-4.438-0.6-4.438-3.574
		c0-1.547,1.331-2.53,3.346-2.53C74.918,28.671,76.153,29.042,77.018,29.606z"/>
	<path fill="#999999" d="M78.209,37.162v-8.396h2.135v8.396H78.209z"/>
	<path fill="#999999" d="M89.449,32.893v3.274c-0.9,0.636-2.315,1.091-3.49,1.091c-2.555,0-4.486-1.847-4.486-4.293
		c0-2.435,1.979-4.271,4.63-4.271c1.247,0,2.566,0.48,3.431,1.248l-1.2,1.451c-0.611-0.564-1.463-0.912-2.243-0.912
		c-1.379,0-2.434,1.08-2.434,2.483c0,1.427,1.066,2.506,2.458,2.506c0.432,0,0.983-0.155,1.487-0.407v-2.171H89.449z"/>
	<path fill="#999999" d="M96.805,37.162l-3.861-5.169v5.169H90.94v-8.396h1.884l3.873,5.182v-5.182h1.991v8.396H96.805z"/>
	<path fill="#999999" d="M106.908,29.606l-0.803,1.667c-0.888-0.516-2.004-0.876-2.688-0.876c-0.551,0-0.923,0.204-0.923,0.611
		c0,1.452,4.438,0.624,4.438,3.659c0,1.679-1.487,2.566-3.358,2.566c-1.402,0-2.842-0.528-3.838-1.344l0.828-1.643
		c0.863,0.755,2.158,1.259,3.034,1.259c0.671,0,1.091-0.252,1.091-0.731c0-1.487-4.438-0.6-4.438-3.574
		c0-1.547,1.332-2.53,3.347-2.53C104.811,28.671,106.045,29.042,106.908,29.606z"/>
</g>
</svg>
