<?xml version="1.0" encoding="utf-8"?>
<!-- Generator: Adobe Illustrator 16.0.0, SVG Export Plug-In . SVG Version: 6.00 Build 0)  -->
<!DOCTYPE svg PUBLIC "-//W3C//DTD SVG 1.1//EN" "http://www.w3.org/Graphics/SVG/1.1/DTD/svg11.dtd">
<svg version="1.1" id="Layer_1" xmlns="http://www.w3.org/2000/svg" xmlns:xlink="http://www.w3.org/1999/xlink" x="0px" y="0px"
	 width="499.017px" height="161px" viewBox="0 78.314 499.017 161" enable-background="new 0 78.314 499.017 161"
	 xml:space="preserve">
<g>
	<path fill="#B4D337" d="M191.306,195.756c-1.412,0-2.805,0-4.223,0c-0.004-0.088-0.014-0.169-0.014-0.25
		c0-1.232,0.004-2.465-0.006-3.699c0-0.215,0.049-0.291,0.277-0.288c1.234,0.011,2.467,0.011,3.699,0
		c0.223-0.002,0.283,0.062,0.281,0.282c-0.01,1.232-0.004,2.466-0.006,3.699C191.315,195.582,191.31,195.664,191.306,195.756z"/>
	<path fill="#B4D337" d="M187.067,190.046c0-0.21,0-0.4,0-0.591c0-1.119,0.006-2.237-0.004-3.355
		c-0.002-0.205,0.061-0.262,0.26-0.26c1.248,0.008,2.498,0.004,3.746,0.003c0.137,0,0.252-0.007,0.252,0.194
		c-0.008,1.303-0.004,2.604-0.006,3.906c0,0.029-0.008,0.059-0.016,0.102C189.897,190.046,188.501,190.046,187.067,190.046z"/>
	<path fill="#B4D337" d="M192.935,193.634c0-0.62,0.006-1.241-0.004-1.861c-0.004-0.188,0.055-0.253,0.248-0.253
		c1.248,0.007,2.496,0.006,3.746,0.002c0.17-0.001,0.227,0.061,0.227,0.227c-0.008,1.256-0.014,2.513-0.008,3.769
		c0.002,0.212-0.08,0.253-0.271,0.253c-1.232-0.008-2.467-0.008-3.699,0.001c-0.199,0.001-0.244-0.069-0.24-0.253
		C192.94,194.89,192.935,194.262,192.935,193.634C192.935,193.634,192.935,193.634,192.935,193.634z"/>
	<path fill="#B4D337" d="M195.03,190.061c-0.627,0-1.254-0.004-1.881,0.004c-0.156,0.002-0.219-0.039-0.217-0.203
		c0.004-1.27,0.004-2.539,0-3.81c-0.002-0.164,0.068-0.21,0.221-0.209c1.254,0.003,2.51,0.005,3.764-0.001
		c0.193-0.002,0.227,0.09,0.227,0.253c-0.004,1.263-0.004,2.525,0.004,3.788c0,0.17-0.082,0.18-0.213,0.18
		C196.3,190.059,195.665,190.061,195.03,190.061C195.03,190.06,195.03,190.061,195.03,190.061z"/>
	<path fill="#ED1F24" d="M186.079,201.992c0,0,12.93-3.508,16.711,9.357c0,0,2.152,12.711,5.713,15.67
		c0,0-25.449-4.646-23.182-24.154c0,0,5.945,7.737,12.594,13.379C197.915,216.242,188.063,206.289,186.079,201.992z"/>
	<path fill="#F57E20" d="M180.194,190.561c0,0,9.697,5.453,4.441,15.272c0,0-6.127,8.778-5.744,12.604
		c0,0-12.358-17.573,0.346-27.799c0,0-0.986,8.041-0.336,15.252C178.899,205.89,178.866,194.261,180.194,190.561z"/>
	<path fill="#F6EC13" d="M184.567,180.763c0,0,2.521,9.035-6.469,11.745c0,0-8.888,1.572-10.942,4.078
		c0,0,3.126-17.84,16.795-16.348c0,0-5.387,4.199-9.304,8.883C174.649,189.121,181.569,182.173,184.567,180.763z"/>
	<path fill="#69BD45" d="M193.413,178.421c0,0-3.84,6.831-10.756,3.132c0,0-6.185-4.314-8.879-4.043c0,0,12.375-8.709,19.58,0.238
		c0,0-5.664-0.693-10.742-0.235C182.616,177.514,190.808,177.485,193.413,178.421z"/>
	<path fill="#3953A4" d="M200.97,183.155c0,0-6.328,1.768-8.23-4.526c0,0-1.102-6.227-2.859-7.664c0,0,12.498,2.185,11.457,11.76
		c0,0-2.943-3.772-6.225-6.514C195.112,176.211,199.981,181.055,200.97,183.155z"/>
	<path fill="#4D2A7C" d="M203.077,190.907c0,0-4.922-2.693-2.328-7.673c0,0,3.039-4.462,2.822-6.388c0,0,6.332,8.787-0.014,14.017
		c0,0,0.451-4.06,0.082-7.691C203.64,183.172,203.726,189.035,203.077,190.907z"/>
	<path fill="#7F469B" d="M200.147,196.951c0,0-1.275-4.488,3.188-5.857c0,0,4.416-0.803,5.432-2.055c0,0-1.512,8.88-8.313,8.171
		c0,0,2.668-2.102,4.605-4.44C205.06,192.77,201.636,196.242,200.147,196.951z"/>
	<g>
		<path d="M217.823,209.927c-1.781,1.751-3.656,2.438-5.938,2.438c-4.469,0-8.188-2.688-8.188-8.157
			c0-5.468,3.719-8.156,8.188-8.156c2.188,0,3.875,0.624,5.563,2.28l-2.406,2.531c-0.906-0.811-2.031-1.219-3.094-1.219
			c-2.563,0-4.438,1.874-4.438,4.563c0,2.938,2,4.499,4.375,4.499c1.221,0,2.439-0.343,3.377-1.28L217.823,209.927z"/>
		<path d="M235.136,204.209c0,4.438-3.031,8.031-8.031,8.031s-8-3.594-8-8.031c0-4.404,3.063-8.03,7.969-8.03
			S235.136,199.804,235.136,204.209z M222.917,204.209c0,2.344,1.406,4.533,4.188,4.533s4.188-2.189,4.188-4.533
			c0-2.313-1.627-4.562-4.188-4.562C224.354,199.647,222.917,201.896,222.917,204.209z"/>
		<path d="M241.544,190.054v21.843h-3.783v-21.843H241.544z"/>
		<path d="M260.2,204.209c0,4.438-3.033,8.031-8.031,8.031c-5,0-8-3.594-8-8.031c0-4.404,3.063-8.03,7.969-8.03
			S260.2,199.804,260.2,204.209z M247.979,204.209c0,2.344,1.408,4.533,4.188,4.533c2.781,0,4.188-2.189,4.188-4.533
			c0-2.313-1.627-4.562-4.188-4.562C249.419,199.647,247.979,201.896,247.979,204.209z"/>
		<path d="M266.356,196.491l0.281,1.78c1.189-1.905,2.781-2.188,4.344-2.188c1.596,0,3.123,0.626,3.969,1.47l-1.719,3.313
			c-0.781-0.655-1.5-1.001-2.75-1.001c-2,0-3.844,1.064-3.844,3.906v8.125h-3.813v-15.405H266.356z"/>
		<path fill="#58595B" d="M295.921,209.927c-1.783,1.751-3.658,2.438-5.939,2.438c-4.469,0-8.186-2.688-8.186-8.157
			c0-5.468,3.717-8.156,8.186-8.156c2.189,0,3.875,0.624,5.563,2.28l-2.406,2.531c-0.906-0.811-2.031-1.219-3.092-1.219
			c-2.564,0-4.438,1.874-4.438,4.563c0,2.938,2,4.499,4.373,4.499c1.219,0,2.439-0.343,3.377-1.28L295.921,209.927z"/>
		<path fill="#58595B" d="M309.827,196.491h3.654v15.405h-3.592l-0.189-2.25c-0.873,1.813-3.279,2.688-4.998,2.719
			c-4.563,0.031-7.936-2.781-7.936-8.186c0-5.314,3.529-8.094,8.029-8.064c2.063,0,4.031,0.969,4.906,2.5L309.827,196.491z
			 M300.577,204.179c0,2.937,2.031,4.688,4.563,4.688c6,0,6-9.345,0-9.345C302.608,199.521,300.577,201.24,300.577,204.179z"/>
		<path fill="#58595B" d="M328.046,211.896v-8.063c0-2.343-1.279-4.123-3.719-4.123c-2.344,0-3.938,1.968-3.938,4.312v7.873h-3.781
			v-15.436h3.408l0.25,2.093c1.563-1.531,3.125-2.312,5.063-2.312c3.627,0,6.531,2.719,6.531,7.561v8.094h-3.813L328.046,211.896
			L328.046,211.896z"/>
	</g>
</g>
<g>
	<path fill="#333333" d="M66.095,112.615l-4.14,5.16c-3.06-3.3-7.439-5.34-11.699-5.34c-8.4,0-15,6.48-15,14.76
		s6.6,14.819,15,14.819c4.2,0,8.52-1.92,11.699-4.979l4.2,4.68c-4.26,4.199-10.319,6.899-16.259,6.899
		c-12.299,0-21.839-9.3-21.839-21.358c0-11.939,9.66-21.119,22.079-21.119C56.075,106.137,62.015,108.596,66.095,112.615z"/>
	<path fill="#333333" d="M113.494,127.315c0,11.999-9.72,21.299-22.259,21.299s-22.259-9.3-22.259-21.299
		c0-12.06,9.719-21.179,22.259-21.179S113.494,115.316,113.494,127.315z M76.176,127.315c0,8.339,6.899,14.939,15.119,14.939
		s14.939-6.601,14.939-14.939c0-8.34-6.72-14.819-14.939-14.819C83.016,112.496,76.176,118.976,76.176,127.315z"/>
	<path fill="#333333" d="M158.915,148.314l-0.06-31.379l-13.26,26.999h-4.62l-13.259-26.999v31.379h-6.66v-41.998h8.4l13.859,27.898
		l13.799-27.898h8.34v41.998H158.915z"/>
	<path fill="#333333" d="M176.555,148.314v-41.998h7.08v41.998H176.555z"/>
	<path fill="#333333" d="M224.133,148.314l-22.379-30.119v30.119h-7.08v-41.998h6.96l22.499,30.179v-30.179h6.96v41.998H224.133z"/>
	<path fill="#333333" d="M277.112,127.676v15.479c-4.26,3.24-10.56,5.46-16.319,5.46c-12.42,0-22.079-9.3-22.079-21.299
		s9.779-21.179,22.499-21.179c6,0,11.999,2.279,16.14,5.879l-4.021,5.221c-3.239-3-7.739-4.801-12.119-4.801
		c-8.58,0-15.3,6.54-15.3,14.88c0,8.399,6.78,14.939,15.359,14.939c3.12,0,6.66-1.08,9.66-2.88v-11.699H277.112z"/>
	<path fill="#333333" d="M331.111,110.336l-2.939,6.24c-4.561-2.76-9.12-3.9-12.3-3.9c-4.14,0-6.84,1.561-6.84,4.38
		c0,9.18,22.679,4.26,22.619,19.38c0,7.499-6.6,12.119-15.84,12.119c-6.6,0-12.839-2.7-17.159-6.66l3.061-6.119
		c4.319,3.959,9.72,6.119,14.219,6.119c4.92,0,7.86-1.859,7.86-5.1c0-9.359-22.68-4.14-22.68-19.079c0-7.2,6.18-11.7,15.3-11.7
		C321.872,106.016,327.212,107.756,331.111,110.336z"/>
	<path fill="#333333" d="M380.972,127.315c0,11.999-9.72,21.299-22.26,21.299c-12.539,0-22.259-9.3-22.259-21.299
		c0-12.06,9.72-21.179,22.259-21.179C371.252,106.137,380.972,115.316,380.972,127.315z M343.652,127.315
		c0,8.339,6.9,14.939,15.12,14.939s14.939-6.601,14.939-14.939c0-8.34-6.72-14.819-14.939-14.819
		C350.492,112.496,343.652,118.976,343.652,127.315z"/>
	<path fill="#333333" d="M427.892,127.315c0,11.999-9.72,21.299-22.26,21.299c-12.539,0-22.259-9.3-22.259-21.299
		c0-12.06,9.72-21.179,22.259-21.179C418.172,106.137,427.892,115.316,427.892,127.315z M390.572,127.315
		c0,8.339,6.9,14.939,15.12,14.939s14.939-6.601,14.939-14.939c0-8.34-6.72-14.819-14.939-14.819
		C397.412,112.496,390.572,118.976,390.572,127.315z"/>
	<path fill="#333333" d="M464.911,148.314l-22.379-30.119v30.119h-7.08v-41.998h6.96l22.499,30.179v-30.179h6.96v41.998H464.911z"/>
</g>
</svg>
