<?xml version="1.0" encoding="utf-8"?>
<!-- Generator: Adobe Illustrator 16.0.0, SVG Export Plug-In . SVG Version: 6.00 Build 0)  -->
<!DOCTYPE svg PUBLIC "-//W3C//DTD SVG 1.1//EN" "http://www.w3.org/Graphics/SVG/1.1/DTD/svg11.dtd">
<svg version="1.1" id="Layer_1" xmlns="http://www.w3.org/2000/svg" xmlns:xlink="http://www.w3.org/1999/xlink" x="0px" y="0px"
	 width="1016.949px" height="262px" viewBox="-268.375 0 1016.949 262" enable-background="new -268.375 0 1016.949 262"
	 xml:space="preserve">
<g>
	<path fill="#B4D337" d="M159.636,198.518c-1.952,0-3.877,0-5.838,0c-0.005-0.121-0.02-0.233-0.02-0.345
		c0-1.704,0.005-3.408-0.008-5.114c0-0.297,0.067-0.402,0.383-0.397c1.707,0.014,3.41,0.014,5.114,0
		c0.308-0.003,0.39,0.085,0.387,0.389c-0.013,1.704-0.005,3.411-0.008,5.114C159.648,198.277,159.641,198.392,159.636,198.518z"/>
	<path fill="#B4D337" d="M153.775,190.624c0-0.29,0-0.552,0-0.816c0-1.548,0.009-3.094-0.005-4.64
		c-0.003-0.283,0.085-0.361,0.36-0.358c1.724,0.011,3.452,0.005,5.178,0.004c0.19,0,0.348-0.01,0.348,0.269
		c-0.011,1.801-0.005,3.6-0.008,5.4c0,0.04-0.011,0.081-0.022,0.141C157.688,190.624,155.758,190.624,153.775,190.624z"/>
	<path fill="#B4D337" d="M161.888,195.584c0-0.857,0.008-1.716-0.005-2.571c-0.005-0.261,0.075-0.352,0.343-0.352
		c1.726,0.011,3.451,0.009,5.179,0.003c0.235,0,0.313,0.085,0.313,0.314c-0.011,1.736-0.019,3.474-0.011,5.21
		c0.002,0.295-0.111,0.352-0.374,0.352c-1.704-0.011-3.411-0.011-5.114,0c-0.275,0.002-0.337-0.095-0.332-0.349
		C161.894,197.322,161.888,196.452,161.888,195.584L161.888,195.584z"/>
	<path fill="#B4D337" d="M164.784,190.645c-0.867,0-1.734-0.006-2.601,0.005c-0.214,0.003-0.302-0.054-0.3-0.28
		c0.005-1.755,0.005-3.509,0-5.267c-0.002-0.226,0.095-0.29,0.305-0.289c1.735,0.004,3.471,0.007,5.205-0.001
		c0.266-0.003,0.313,0.124,0.313,0.351c-0.005,1.744-0.005,3.49,0.005,5.235c0,0.235-0.114,0.249-0.294,0.249
		C166.54,190.642,165.663,190.645,164.784,190.645L164.784,190.645z"/>
	<path fill="#ED1F24" d="M152.41,207.14c0,0,17.875-4.85,23.103,12.937c0,0,2.974,17.572,7.898,21.663
		c0,0-35.183-6.424-32.05-33.393c0,0,8.219,10.695,17.412,18.496C168.773,226.84,155.152,213.08,152.41,207.14z"/>
	<path fill="#F57E20" d="M144.273,191.336c0,0,13.406,7.538,6.14,21.113c0,0-8.47,12.136-7.941,17.426
		c0,0-17.084-24.295,0.478-38.432c0,0-1.362,11.117-0.465,21.086C142.483,212.529,142.438,196.451,144.273,191.336z"/>
	<path fill="#F6EC13" d="M150.319,177.792c0,0,3.486,12.489-8.943,16.235c0,0-12.287,2.174-15.126,5.639
		c0,0,4.322-24.664,23.219-22.601c0,0-7.449,5.806-12.864,12.28C136.607,189.346,146.174,179.74,150.319,177.792z"/>
	<path fill="#69BD45" d="M162.549,174.553c0,0-5.308,9.444-14.87,4.33c0,0-8.551-5.964-12.276-5.59c0,0,17.108-12.04,27.069,0.33
		c0,0-7.831-0.959-14.85-0.324C147.623,173.299,158.947,173.258,162.549,174.553z"/>
	<path fill="#3953A4" d="M172.996,181.097c0,0-8.749,2.445-11.377-6.256c0,0-1.524-8.608-3.953-10.596
		c0,0,17.278,3.021,15.839,16.258c0,0-4.069-5.214-8.607-9.005C164.897,171.498,171.628,178.194,172.996,181.097z"/>
	<path fill="#4D2A7C" d="M175.91,191.814c0,0-6.806-3.723-3.219-10.607c0,0,4.201-6.17,3.9-8.832c0,0,8.754,12.148-0.019,19.379
		c0,0,0.624-5.613,0.113-10.633C176.687,181.121,176.806,189.227,175.91,191.814z"/>
	<path fill="#7F469B" d="M171.858,200.171c0,0-1.762-6.205,4.408-8.099c0,0,6.105-1.109,7.509-2.84c0,0-2.09,12.276-11.492,11.296
		c0,0,3.688-2.907,6.366-6.139C178.65,194.39,173.917,199.19,171.858,200.171z"/>
	<g>
		<path d="M196.295,218.109c-2.462,2.42-5.055,3.371-8.209,3.371c-6.178,0-11.321-3.717-11.321-11.277
			c0-7.56,5.143-11.276,11.321-11.276c3.025,0,5.357,0.863,7.691,3.152l-3.327,3.5c-1.253-1.122-2.808-1.685-4.277-1.685
			c-3.544,0-6.136,2.589-6.136,6.307c0,4.062,2.765,6.221,6.048,6.221c1.688,0,3.373-0.475,4.668-1.771L196.295,218.109z"/>
		<path d="M220.23,210.204c0,6.135-4.191,11.104-11.103,11.104c-6.913,0-11.06-4.969-11.06-11.104
			c0-6.089,4.235-11.101,11.018-11.101C215.866,199.104,220.23,204.115,220.23,210.204z M203.337,210.204
			c0,3.24,1.944,6.268,5.79,6.268c3.846,0,5.791-3.027,5.791-6.268c0-3.196-2.25-6.308-5.791-6.308
			C205.324,203.896,203.337,207.008,203.337,210.204z"/>
		<path d="M229.089,190.637v30.195h-5.23v-30.195H229.089z"/>
		<path d="M254.881,210.204c0,6.135-4.195,11.104-11.105,11.104c-6.911,0-11.058-4.969-11.058-11.104
			c0-6.089,4.233-11.101,11.017-11.101C250.516,199.104,254.881,204.115,254.881,210.204z M237.985,210.204
			c0,3.24,1.947,6.268,5.789,6.268c3.845,0,5.791-3.027,5.791-6.268c0-3.196-2.25-6.308-5.791-6.308
			C239.976,203.896,237.985,207.008,237.985,210.204z"/>
		<path d="M263.392,199.534l0.389,2.462c1.645-2.634,3.845-3.025,6.005-3.025c2.206,0,4.317,0.865,5.487,2.031l-2.377,4.581
			c-1.08-0.906-2.073-1.384-3.802-1.384c-2.765,0-5.313,1.472-5.313,5.4v11.232h-5.271v-21.298H263.392z"/>
		<path fill="#58595B" d="M304.264,218.109c-2.465,2.42-5.058,3.371-8.211,3.371c-6.179,0-11.316-3.717-11.316-11.277
			c0-7.56,5.138-11.276,11.316-11.276c3.026,0,5.356,0.863,7.692,3.152l-3.326,3.5c-1.253-1.122-2.809-1.685-4.274-1.685
			c-3.546,0-6.138,2.589-6.138,6.307c0,4.062,2.765,6.221,6.046,6.221c1.688,0,3.372-0.475,4.668-1.771L304.264,218.109z"/>
		<path fill="#58595B" d="M323.489,199.534h5.053v21.298h-4.966l-0.262-3.11c-1.207,2.506-4.534,3.715-6.91,3.759
			c-6.308,0.043-10.971-3.846-10.971-11.316c0-7.348,4.879-11.191,11.101-11.149c2.852,0,5.573,1.34,6.783,3.456L323.489,199.534z
			 M310.702,210.164c0,4.06,2.808,6.48,6.308,6.48c8.294,0,8.294-12.921,0-12.921C313.509,203.724,310.702,206.1,310.702,210.164z"
			/>
		<path fill="#58595B" d="M348.676,220.832v-11.147c0-3.239-1.769-5.7-5.141-5.7c-3.24,0-5.444,2.721-5.444,5.961v10.884h-5.228
			V199.49h4.712l0.346,2.894c2.16-2.116,4.32-3.196,6.999-3.196c5.014,0,9.029,3.759,9.029,10.452v11.189h-5.271L348.676,220.832
			L348.676,220.832z"/>
	</g>
</g>
<g>
	<path fill="#333333" d="M56.23,106.615l-4.14,5.16c-3.061-3.301-7.439-5.34-11.699-5.34c-8.4,0-15,6.479-15,14.76
		c0,8.279,6.6,14.818,15,14.818c4.2,0,8.52-1.92,11.699-4.979l4.199,4.68c-4.26,4.199-10.318,6.899-16.259,6.899
		c-12.299,0-21.839-9.3-21.839-21.358c0-11.939,9.66-21.119,22.079-21.119C46.21,100.137,52.15,102.596,56.23,106.615z"/>
	<path fill="#333333" d="M103.629,121.314c0,12-9.721,21.3-22.26,21.3s-22.259-9.3-22.259-21.3c0-12.06,9.719-21.179,22.259-21.179
		S103.629,109.316,103.629,121.314z M66.311,121.314c0,8.34,6.899,14.939,15.119,14.939s14.938-6.602,14.938-14.939
		c0-8.34-6.72-14.818-14.938-14.818C73.151,106.496,66.311,112.977,66.311,121.314z"/>
	<path fill="#333333" d="M149.05,142.314l-0.061-31.379l-13.26,26.998h-4.62l-13.259-26.998v31.379h-6.66v-41.998h8.4l13.858,27.897
		l13.799-27.897h8.341v41.998H149.05z"/>
	<path fill="#333333" d="M166.69,142.314v-41.998h7.08v41.998H166.69z"/>
	<path fill="#333333" d="M214.268,142.314l-22.379-30.119v30.119h-7.08v-41.998h6.96l22.499,30.179v-30.179h6.96v41.998H214.268z"/>
	<path fill="#333333" d="M267.247,121.676v15.479c-4.26,3.24-10.561,5.461-16.318,5.461c-12.42,0-22.079-9.301-22.079-21.299
		c0-12,9.779-21.18,22.499-21.18c6,0,11.998,2.279,16.14,5.879l-4.021,5.221c-3.24-3-7.74-4.801-12.119-4.801
		c-8.58,0-15.3,6.541-15.3,14.881c0,8.398,6.779,14.938,15.358,14.938c3.12,0,6.66-1.08,9.66-2.88v-11.699H267.247z"/>
	<path fill="#333333" d="M321.247,104.336l-2.939,6.24c-4.561-2.76-9.121-3.9-12.301-3.9c-4.139,0-6.84,1.561-6.84,4.381
		c0,9.18,22.68,4.26,22.619,19.379c0,7.5-6.6,12.119-15.84,12.119c-6.6,0-12.839-2.699-17.159-6.66l3.062-6.119
		c4.318,3.959,9.719,6.119,14.219,6.119c4.92,0,7.859-1.858,7.859-5.1c0-9.359-22.68-4.141-22.68-19.079
		c0-7.2,6.18-11.7,15.301-11.7C312.006,100.016,317.346,101.756,321.247,104.336z"/>
	<path fill="#333333" d="M371.106,121.314c0,12-9.719,21.3-22.26,21.3c-12.539,0-22.258-9.3-22.258-21.3
		c0-12.06,9.719-21.179,22.258-21.179C361.387,100.137,371.106,109.316,371.106,121.314z M333.788,121.314
		c0,8.34,6.898,14.939,15.119,14.939s14.939-6.602,14.939-14.939c0-8.34-6.721-14.818-14.939-14.818
		C340.627,106.496,333.788,112.977,333.788,121.314z"/>
	<path fill="#333333" d="M418.026,121.314c0,12-9.719,21.3-22.26,21.3c-12.539,0-22.258-9.3-22.258-21.3
		c0-12.06,9.719-21.179,22.258-21.179C408.307,100.137,418.026,109.316,418.026,121.314z M380.708,121.314
		c0,8.34,6.898,14.939,15.119,14.939s14.939-6.602,14.939-14.939c0-8.34-6.721-14.818-14.939-14.818
		C387.547,106.496,380.708,112.977,380.708,121.314z"/>
	<path fill="#333333" d="M455.045,142.314l-22.379-30.119v30.119h-7.08v-41.998h6.961l22.498,30.179v-30.179h6.961v41.998H455.045z"
		/>
</g>
<g>
	<path fill="#333333" d="M-233.222,34.575V57h-2.879V34.575h-8.207v-2.771h19.33v2.771H-233.222z"/>
	<path fill="#333333" d="M-202.731,57V45.914h-15.19V57h-2.88V31.803h2.88v11.375h15.19V31.803h2.879V57H-202.731z"/>
	<path fill="#333333" d="M-189.337,34.575v8.279h12.706v2.771h-12.706v8.639h14.686V57h-17.566V31.803h17.098v2.771H-189.337z"/>
	<path fill="#333333" d="M-156.723,50.629L-159.53,57h-3.06l11.303-25.197h2.987L-137.033,57h-3.131l-2.808-6.371H-156.723z
		 M-149.883,35.079l-5.616,12.779h11.303L-149.883,35.079z"/>
	<path fill="#333333" d="M-110.25,57l-0.036-20.77l-9.179,18.105h-1.728l-9.143-18.105V57h-2.736V31.803h3.563l9.215,18.142
		l9.179-18.142h3.527V57H-110.25z"/>
	<path fill="#333333" d="M-97.72,50.629L-100.527,57h-3.06l11.303-25.197h2.987L-78.03,57h-3.131l-2.808-6.371H-97.72z
		 M-90.88,35.079l-5.616,12.779h11.303L-90.88,35.079z"/>
	<path fill="#333333" d="M-72.556,54.264h16.882L-55.71,57h-20.625v-2.304l16.702-20.122h-16.234v-2.771h20.014v2.304
		L-72.556,54.264z"/>
	<path fill="#333333" d="M-50.308,57V31.803h2.88V57H-50.308z"/>
	<path fill="#333333" d="M-21.798,57l-15.118-20.229V57h-2.88V31.803h2.988l15.118,20.265V31.803h2.843V57H-21.798z"/>
	<path fill="#333333" d="M8.945,44.689v9.143c-2.484,1.98-5.975,3.313-9.359,3.313c-7.307,0-13.138-5.652-13.138-12.743
		s5.867-12.67,13.282-12.67c3.492,0,6.875,1.332,9.287,3.456l-1.656,2.16c-2.052-1.836-4.823-2.916-7.631-2.916
		c-5.759,0-10.367,4.428-10.367,9.971c0,5.579,4.644,10.007,10.403,10.007c2.268,0,4.679-0.792,6.623-2.123v-7.596H8.945z"/>
	<path fill="#333333" d="M25.794,57V31.803h2.88V57H25.794z"/>
	<path fill="#333333" d="M54.304,57L39.186,36.771V57h-2.88V31.803h2.988l15.118,20.265V31.803h2.843V57H54.304z"/>
	<path fill="#333333" d="M72.593,34.575V57h-2.88V34.575h-8.207v-2.771h19.33v2.771H72.593z"/>
	<path fill="#333333" d="M87.894,34.575v8.279H100.6v2.771H87.894v8.639h14.686V57H85.014V31.803h17.098v2.771H87.894z"/>
	<path fill="#333333" d="M119.716,48.973c-0.54,0.036-1.116,0.072-1.691,0.072h-6.695V57h-2.88V31.803h9.575
		c6.299,0,9.935,3.096,9.935,8.459c0,4.175-2.016,6.983-5.651,8.171L128.211,57h-3.275L119.716,48.973z M118.025,46.273
		c4.571,0,7.163-2.016,7.163-5.939c0-3.815-2.592-5.759-7.163-5.759h-6.695v11.699H118.025z"/>
	<path fill="#333333" d="M134.477,57V31.803h2.88V57H134.477z"/>
	<path fill="#333333" d="M168.998,44.401c0,7.091-5.831,12.743-13.174,12.743c-7.379,0-13.211-5.652-13.211-12.743
		c0-7.127,5.832-12.67,13.211-12.67C163.167,31.731,168.998,37.311,168.998,44.401z M145.529,44.401
		c0,5.544,4.68,9.972,10.295,9.972s10.223-4.428,10.223-9.972c0-5.543-4.607-9.935-10.223-9.935S145.529,38.858,145.529,44.401z"/>
	<path fill="#333333" d="M185.523,48.973c-0.54,0.036-1.116,0.072-1.691,0.072h-6.695V57h-2.88V31.803h9.575
		c6.299,0,9.935,3.096,9.935,8.459c0,4.175-2.016,6.983-5.651,8.171L194.018,57h-3.275L185.523,48.973z M183.832,46.273
		c4.571,0,7.163-2.016,7.163-5.939c0-3.815-2.592-5.759-7.163-5.759h-6.695v11.699H183.832z"/>
	<path fill="#333333" d="M220.334,31.803c7.344,0,12.959,5.435,12.959,12.598S227.642,57,220.227,57h-10.079V31.803H220.334z
		 M213.028,54.264h7.343c5.615,0,10.007-4.211,10.007-9.826c0-5.651-4.463-9.863-10.114-9.863h-7.235V54.264z"/>
	<path fill="#333333" d="M241.431,34.575v8.279h12.706v2.771h-12.706v8.639h14.686V57h-17.565V31.803h17.098v2.771H241.431z"/>
	<path fill="#333333" d="M281.964,35.403l-1.728,2.196c-1.944-1.98-4.68-3.168-7.451-3.168c-5.688,0-10.259,4.392-10.259,9.935
		c0,5.507,4.571,9.935,10.259,9.935c2.771,0,5.472-1.152,7.451-3.023L282,53.256c-2.483,2.34-5.867,3.889-9.359,3.889
		c-7.271,0-13.03-5.652-13.03-12.779c0-7.055,5.832-12.635,13.139-12.635C276.206,31.731,279.552,33.135,281.964,35.403z"/>
	<path fill="#333333" d="M310.583,44.401c0,7.091-5.831,12.743-13.174,12.743c-7.379,0-13.211-5.652-13.211-12.743
		c0-7.127,5.832-12.67,13.211-12.67C304.752,31.731,310.583,37.311,310.583,44.401z M287.115,44.401
		c0,5.544,4.68,9.972,10.295,9.972s10.223-4.428,10.223-9.972c0-5.543-4.607-9.935-10.223-9.935S287.115,38.858,287.115,44.401z"/>
	<path fill="#333333" d="M327.109,48.973c-0.54,0.036-1.116,0.072-1.691,0.072h-6.695V57h-2.88V31.803h9.575
		c6.299,0,9.935,3.096,9.935,8.459c0,4.175-2.016,6.983-5.651,8.171L335.604,57h-3.275L327.109,48.973z M325.417,46.273
		c4.571,0,7.163-2.016,7.163-5.939c0-3.815-2.592-5.759-7.163-5.759h-6.695v11.699H325.417z"/>
	<path fill="#333333" d="M371.711,35.403l-1.728,2.196c-1.944-1.98-4.68-3.168-7.451-3.168c-5.688,0-10.259,4.392-10.259,9.935
		c0,5.507,4.571,9.935,10.259,9.935c2.771,0,5.472-1.152,7.451-3.023l1.764,1.979c-2.483,2.34-5.867,3.889-9.359,3.889
		c-7.271,0-13.03-5.652-13.03-12.779c0-7.055,5.832-12.635,13.139-12.635C365.953,31.731,369.299,33.135,371.711,35.403z"/>
	<path fill="#333333" d="M400.331,44.401c0,7.091-5.831,12.743-13.174,12.743c-7.379,0-13.211-5.652-13.211-12.743
		c0-7.127,5.832-12.67,13.211-12.67C394.5,31.731,400.331,37.311,400.331,44.401z M376.862,44.401c0,5.544,4.68,9.972,10.295,9.972
		s10.223-4.428,10.223-9.972c0-5.543-4.607-9.935-10.223-9.935S376.862,38.858,376.862,44.401z"/>
	<path fill="#333333" d="M423.587,57l-15.118-20.229V57h-2.88V31.803h2.987l15.118,20.265V31.803h2.844V57H423.587z"/>
	<path fill="#333333" d="M454.187,35.403l-1.728,2.196c-1.944-1.98-4.68-3.168-7.451-3.168c-5.688,0-10.259,4.392-10.259,9.935
		c0,5.507,4.571,9.935,10.259,9.935c2.771,0,5.472-1.152,7.451-3.023l1.764,1.979c-2.483,2.34-5.867,3.889-9.359,3.889
		c-7.271,0-13.03-5.652-13.03-12.779c0-7.055,5.832-12.635,13.139-12.635C448.428,31.731,451.775,33.135,454.187,35.403z"/>
	<path fill="#333333" d="M462.289,34.575v8.279h12.706v2.771h-12.706v8.639h14.686V57h-17.565V31.803h17.098v2.771H462.289z"/>
	<path fill="#333333" d="M492.311,31.803c6.228,0,9.827,3.096,9.827,8.459c0,5.58-3.6,8.783-9.827,8.783h-6.587V57h-2.88V31.803
		H492.311z M485.724,46.273h6.479c4.535,0,7.163-2.016,7.163-5.939c0-3.815-2.628-5.759-7.163-5.759h-6.479V46.273z"/>
	<path fill="#333333" d="M514.595,34.575V57h-2.88V34.575h-8.207v-2.771h19.33v2.771H514.595z"/>
	<path fill="#333333" d="M546.346,31.803c6.228,0,9.827,3.096,9.827,8.459c0,5.58-3.6,8.783-9.827,8.783h-6.587V57h-2.88V31.803
		H546.346z M539.759,46.273h6.479c4.535,0,7.163-2.016,7.163-5.939c0-3.815-2.628-5.759-7.163-5.759h-6.479V46.273z"/>
	<path fill="#333333" d="M574.894,54.264V57h-13.931V31.803h2.88v22.46H574.894z"/>
	<path fill="#333333" d="M582.059,50.629L579.25,57h-3.06l11.303-25.197h2.988L601.749,57h-3.132l-2.808-6.371H582.059z
		 M588.898,35.079l-5.615,12.779h11.303L588.898,35.079z"/>
	<path fill="#333333" d="M611.039,34.575V57h-2.88V34.575h-8.207v-2.771h19.33v2.771H611.039z"/>
	<path fill="#333333" d="M626.339,34.575v8.855h11.771v2.771h-11.771V57h-2.88V31.803h16.019v2.771H626.339z"/>
	<path fill="#333333" d="M667.736,44.401c0,7.091-5.831,12.743-13.174,12.743c-7.379,0-13.211-5.652-13.211-12.743
		c0-7.127,5.832-12.67,13.211-12.67C661.905,31.731,667.736,37.311,667.736,44.401z M644.267,44.401
		c0,5.544,4.68,9.972,10.295,9.972s10.223-4.428,10.223-9.972c0-5.543-4.607-9.935-10.223-9.935S644.267,38.858,644.267,44.401z"/>
	<path fill="#333333" d="M684.261,48.973c-0.54,0.036-1.116,0.072-1.691,0.072h-6.695V57h-2.88V31.803h9.575
		c6.299,0,9.935,3.096,9.935,8.459c0,4.175-2.016,6.983-5.651,8.171L692.756,57h-3.275L684.261,48.973z M682.57,46.273
		c4.571,0,7.163-2.016,7.163-5.939c0-3.815-2.592-5.759-7.163-5.759h-6.695v11.699H682.57z"/>
	<path fill="#333333" d="M721.843,57l-0.036-20.77l-9.179,18.105h-1.728l-9.144-18.105V57h-2.735V31.803h3.563l9.215,18.142
		l9.179-18.142h3.528V57H721.843z"/>
</g>
</svg>
