<?xml version="1.0" encoding="utf-8"?>
<!-- Generator: Adobe Illustrator 16.0.0, SVG Export Plug-In . SVG Version: 6.00 Build 0)  -->
<!DOCTYPE svg PUBLIC "-//W3C//DTD SVG 1.1//EN" "http://www.w3.org/Graphics/SVG/1.1/DTD/svg11.dtd">
<svg version="1.1" id="Layer_1" xmlns="http://www.w3.org/2000/svg" xmlns:xlink="http://www.w3.org/1999/xlink" x="0px" y="0px"
	 width="256px" height="256px" viewBox="0 0 256 256" enable-background="new 0 0 256 256" xml:space="preserve">
<path fill="#999999" d="M128,2.999C58.963,2.999,2.999,58.963,2.999,128c0,69.036,55.964,125.001,125.001,125.001
	c69.036,0,125.001-55.965,125.001-125.001C253.001,58.963,197.036,2.999,128,2.999z M162.5,62.526
	c8.658,0,15.678,7.02,15.678,15.678s-7.02,15.678-15.678,15.678s-15.678-7.02-15.678-15.678S153.842,62.526,162.5,62.526z
	 M93.5,63.526c8.658,0,15.678,7.02,15.678,15.678s-7.02,15.678-15.678,15.678s-15.678-7.02-15.678-15.678S84.842,63.526,93.5,63.526
	z M131,212.831c-68.661,0-97.595-83.105-80.754-68.949c17.602,14.796,140.75,12.704,155.508,0.39
	C225.051,128.17,198.355,212.831,131,212.831z"/>
</svg>
