<?xml version="1.0" encoding="utf-8"?>
<!-- Generator: Adobe Illustrator 16.0.0, SVG Export Plug-In . SVG Version: 6.00 Build 0)  -->
<!DOCTYPE svg PUBLIC "-//W3C//DTD SVG 1.1//EN" "http://www.w3.org/Graphics/SVG/1.1/DTD/svg11.dtd">
<svg version="1.1" id="Layer_1" xmlns="http://www.w3.org/2000/svg" xmlns:xlink="http://www.w3.org/1999/xlink" x="0px" y="0px"
	 width="200px" height="118.259px" viewBox="0 0 200 118.259" enable-background="new 0 0 200 118.259" xml:space="preserve">
<path fill-rule="evenodd" clip-rule="evenodd" fill="#B4D337" d="M50.119,52.406c-2.874,0-5.705,0-8.589,0
	c-0.011-0.178-0.028-0.342-0.028-0.506c-0.003-2.509,0.008-5.018-0.012-7.527c-0.003-0.438,0.099-0.593,0.564-0.588
	c2.509,0.021,5.018,0.021,7.527,0c0.452-0.004,0.576,0.125,0.572,0.574c-0.021,2.508-0.01,5.018-0.012,7.527
	C50.141,52.053,50.127,52.22,50.119,52.406z"/>
<path fill-rule="evenodd" clip-rule="evenodd" fill="#B4D337" d="M41.498,40.789c0-0.428,0-0.815,0-1.203
	c0-2.276,0.011-4.551-0.009-6.826c-0.003-0.416,0.124-0.532,0.528-0.529c2.54,0.015,5.081,0.008,7.621,0.006
	c0.28,0,0.515-0.015,0.512,0.396c-0.014,2.649-0.007,5.298-0.009,7.948c0,0.059-0.018,0.119-0.033,0.207
	C47.254,40.789,44.412,40.789,41.498,40.789z"/>
<path fill-rule="evenodd" clip-rule="evenodd" fill="#B4D337" d="M53.433,48.09c0-1.263,0.012-2.526-0.007-3.788
	c-0.006-0.384,0.113-0.515,0.504-0.514c2.54,0.014,5.081,0.013,7.622,0.002c0.348-0.001,0.462,0.124,0.461,0.463
	c-0.014,2.556-0.025,5.112-0.013,7.668c0.002,0.432-0.164,0.515-0.553,0.513c-2.51-0.014-5.019-0.015-7.528,0.003
	c-0.405,0.002-0.495-0.142-0.49-0.514c0.019-1.278,0.007-2.557,0.007-3.834C53.435,48.09,53.434,48.09,53.433,48.09z"/>
<path fill-rule="evenodd" clip-rule="evenodd" fill="#B4D337" d="M57.699,40.82c-1.276,0-2.553-0.01-3.829,0.006
	c-0.317,0.004-0.442-0.079-0.441-0.413c0.009-2.584,0.008-5.167,0-7.751c-0.001-0.334,0.14-0.426,0.45-0.425
	c2.553,0.007,5.105,0.009,7.658-0.003c0.394-0.002,0.46,0.184,0.46,0.516c-0.005,2.568-0.006,5.138,0.009,7.706
	c0.002,0.348-0.166,0.368-0.432,0.366c-1.292-0.007-2.584-0.004-3.876-0.004C57.699,40.817,57.699,40.818,57.699,40.82z"/>
<path fill-rule="evenodd" clip-rule="evenodd" fill="#ED1F24" d="M39.485,65.096c0,0,26.31-7.138,34.002,19.04
	c0,0,4.382,25.863,11.625,31.884c0,0-51.781-9.453-47.166-49.148c0,0,12.096,15.742,25.622,27.221
	C63.569,94.092,43.521,73.839,39.485,65.096z"/>
<path fill-rule="evenodd" clip-rule="evenodd" fill="#F57E20" d="M27.511,41.836c0,0,19.731,11.097,9.039,31.074
	c0,0-12.469,17.863-11.688,25.645c0,0-25.146-35.753,0.704-56.562c0,0-2.007,16.362-0.686,31.035
	C24.879,73.028,24.808,49.365,27.511,41.836z"/>
<path fill-rule="evenodd" clip-rule="evenodd" fill="#F6EC13" d="M36.41,21.901c0,0,5.128,18.383-13.161,23.899
	c0,0-18.086,3.197-22.265,8.297c0,0,6.361-36.298,34.173-33.264c0,0-10.96,8.546-18.929,18.073
	C16.229,38.906,30.308,24.77,36.41,21.901z"/>
<path fill-rule="evenodd" clip-rule="evenodd" fill="#69BD45" d="M54.409,17.136c0,0-7.813,13.9-21.886,6.373
	c0,0-12.584-8.779-18.066-8.228c0,0,25.179-17.719,39.841,0.485c0,0-11.526-1.411-21.86-0.478
	C32.438,15.289,49.105,15.232,54.409,17.136z"/>
<path fill-rule="evenodd" clip-rule="evenodd" fill="#3953A4" d="M69.782,26.769c0,0-12.876,3.596-16.744-9.211
	c0,0-2.244-12.667-5.818-15.593c0,0,25.427,4.445,23.309,23.927c0,0-5.989-7.675-12.664-13.254
	C57.865,12.638,67.771,22.496,69.782,26.769z"/>
<path fill-rule="evenodd" clip-rule="evenodd" fill="#4D2A7C" d="M74.071,42.542c0,0-10.012-5.481-4.736-15.613
	c0,0,6.183-9.078,5.744-12.996c0,0,12.883,17.879-0.029,28.52c0,0,0.918-8.261,0.167-15.651
	C75.217,26.802,75.391,38.732,74.071,42.542z"/>
<path fill-rule="evenodd" clip-rule="evenodd" fill="#7F469B" d="M68.111,54.838c0,0-2.595-9.13,6.487-11.917
	c0,0,8.986-1.634,11.052-4.181c0,0-3.076,18.068-16.915,16.626c0,0,5.43-4.276,9.371-9.034
	C78.106,46.332,71.138,53.396,68.111,54.838z"/>
<g>
	<path d="M91.536,73.697c-1.665,1.636-3.417,2.278-5.548,2.278c-4.176,0-7.651-2.512-7.651-7.622s3.475-7.622,7.651-7.622
		c2.044,0,3.621,0.584,5.198,2.132l-2.249,2.365c-0.847-0.759-1.898-1.139-2.891-1.139c-2.395,0-4.147,1.752-4.147,4.264
		c0,2.745,1.869,4.205,4.089,4.205c1.139,0,2.278-0.321,3.154-1.197L91.536,73.697z"/>
	<path d="M107.715,68.354c0,4.146-2.833,7.505-7.505,7.505c-4.672,0-7.476-3.358-7.476-7.505c0-4.117,2.862-7.505,7.447-7.505
		C104.765,60.849,107.715,64.236,107.715,68.354z M96.296,68.354c0,2.19,1.314,4.234,3.913,4.234c2.599,0,3.914-2.044,3.914-4.234
		c0-2.161-1.519-4.264-3.914-4.264C97.64,64.09,96.296,66.192,96.296,68.354z"/>
	<path d="M113.703,55.125v20.412h-3.534V55.125H113.703z"/>
	<path d="M131.138,68.354c0,4.146-2.833,7.505-7.505,7.505s-7.476-3.358-7.476-7.505c0-4.117,2.862-7.505,7.447-7.505
		S131.138,64.236,131.138,68.354z M119.719,68.354c0,2.19,1.314,4.234,3.913,4.234s3.913-2.044,3.913-4.234
		c0-2.161-1.519-4.264-3.913-4.264C121.063,64.09,119.719,66.192,119.719,68.354z"/>
	<path d="M136.892,61.141l0.263,1.664c1.11-1.781,2.599-2.044,4.059-2.044c1.49,0,2.92,0.584,3.709,1.372l-1.606,3.096
		c-0.73-0.613-1.402-0.935-2.57-0.935c-1.869,0-3.592,0.993-3.592,3.65v7.593h-3.563V61.141H136.892z"/>
	<path fill="#58595B" d="M164.519,73.697c-1.665,1.636-3.417,2.278-5.548,2.278c-4.176,0-7.651-2.512-7.651-7.622
		s3.475-7.622,7.651-7.622c2.044,0,3.621,0.584,5.198,2.132l-2.249,2.365c-0.847-0.759-1.898-1.139-2.891-1.139
		c-2.395,0-4.146,1.752-4.146,4.264c0,2.745,1.869,4.205,4.088,4.205c1.139,0,2.278-0.321,3.154-1.197L164.519,73.697z"/>
	<path fill="#58595B" d="M177.515,61.141h3.417v14.396h-3.358l-0.175-2.103c-0.818,1.694-3.066,2.512-4.672,2.541
		c-4.264,0.029-7.417-2.6-7.417-7.651c0-4.965,3.3-7.563,7.505-7.534c1.927,0,3.767,0.905,4.585,2.336L177.515,61.141z
		 M168.871,68.324c0,2.745,1.898,4.381,4.264,4.381c5.607,0,5.607-8.732,0-8.732C170.769,63.973,168.871,65.579,168.871,68.324z"/>
	<path fill="#58595B" d="M194.542,75.537v-7.534c0-2.19-1.197-3.854-3.475-3.854c-2.19,0-3.68,1.84-3.68,4.029v7.359h-3.533V61.111
		h3.183l0.234,1.956c1.46-1.431,2.92-2.161,4.731-2.161c3.388,0,6.104,2.541,6.104,7.067v7.563H194.542z"/>
</g>
</svg>
