<?xml version="1.0" encoding="utf-8"?>
<!-- Generator: Adobe Illustrator 16.0.0, SVG Export Plug-In . SVG Version: 6.00 Build 0)  -->
<!DOCTYPE svg PUBLIC "-//W3C//DTD SVG 1.1//EN" "http://www.w3.org/Graphics/SVG/1.1/DTD/svg11.dtd">
<svg version="1.1" id="Layer_1" xmlns="http://www.w3.org/2000/svg" xmlns:xlink="http://www.w3.org/1999/xlink" x="0px" y="0px"
	 width="350px" height="118.258px" viewBox="-75 0 350 118.258" enable-background="new -75 0 350 118.258" xml:space="preserve">
<path fill="#B4D337" d="M-16.986,52.406c-2.874,0-5.705,0-8.589,0c-0.011-0.178-0.028-0.342-0.028-0.506
	c-0.003-2.509,0.008-5.018-0.012-7.527c-0.003-0.438,0.099-0.593,0.564-0.588c2.509,0.021,5.018,0.021,7.527,0
	c0.452-0.004,0.576,0.125,0.572,0.574c-0.021,2.508-0.01,5.018-0.012,7.527C-16.964,52.053-16.979,52.22-16.986,52.406z"/>
<path fill="#B4D337" d="M-25.607,40.789c0-0.428,0-0.815,0-1.203c0-2.276,0.011-4.551-0.009-6.826
	c-0.003-0.416,0.124-0.532,0.528-0.529c2.54,0.015,5.081,0.008,7.621,0.006c0.28,0,0.515-0.015,0.512,0.396
	c-0.014,2.649-0.007,5.298-0.009,7.948c0,0.059-0.018,0.119-0.033,0.207C-19.852,40.789-22.693,40.789-25.607,40.789z"/>
<path fill="#B4D337" d="M-13.672,48.09c0-1.263,0.012-2.526-0.007-3.788c-0.006-0.384,0.113-0.515,0.504-0.514
	c2.54,0.014,5.081,0.013,7.622,0.002c0.348-0.001,0.462,0.124,0.461,0.463c-0.014,2.556-0.025,5.112-0.013,7.668
	c0.002,0.432-0.164,0.515-0.553,0.513c-2.51-0.014-5.019-0.015-7.528,0.003c-0.405,0.002-0.495-0.142-0.49-0.514
	c0.019-1.278,0.007-2.557,0.007-3.834C-13.67,48.09-13.671,48.09-13.672,48.09z"/>
<path fill="#B4D337" d="M-9.406,40.82c-1.276,0-2.553-0.01-3.829,0.006c-0.317,0.004-0.442-0.079-0.441-0.413
	c0.009-2.584,0.008-5.167,0-7.751c-0.001-0.334,0.14-0.426,0.45-0.425c2.553,0.007,5.105,0.009,7.658-0.003
	c0.394-0.002,0.46,0.184,0.46,0.516c-0.005,2.568-0.006,5.138,0.009,7.706c0.002,0.348-0.166,0.368-0.432,0.366
	c-1.292-0.007-2.584-0.004-3.876-0.004C-9.406,40.817-9.406,40.818-9.406,40.82z"/>
<path fill="#ED1F24" d="M-27.621,65.096c0,0,26.31-7.138,34.002,19.04c0,0,4.382,25.862,11.625,31.884
	c0,0-51.781-9.453-47.166-49.148c0,0,12.096,15.742,25.622,27.221C-3.537,94.092-23.584,73.838-27.621,65.096z"/>
<path fill="#F57E20" d="M-39.594,41.836c0,0,19.731,11.097,9.039,31.075c0,0-12.469,17.862-11.688,25.645
	c0,0-25.146-35.754,0.704-56.562c0,0-2.007,16.362-0.686,31.035C-42.227,73.028-42.297,49.365-39.594,41.836z"/>
<path fill="#F6EC13" d="M-30.695,21.901c0,0,5.128,18.383-13.161,23.899c0,0-18.086,3.197-22.265,8.297
	c0,0,6.361-36.298,34.173-33.264c0,0-10.96,8.546-18.929,18.073C-50.876,38.906-36.797,24.77-30.695,21.901z"/>
<path fill="#69BD45" d="M-12.696,17.136c0,0-7.813,13.9-21.886,6.373c0,0-12.584-8.779-18.066-8.228c0,0,25.179-17.719,39.841,0.485
	c0,0-11.526-1.411-21.86-0.478C-34.667,15.289-18,15.232-12.696,17.136z"/>
<path fill="#3953A4" d="M2.677,26.769c0,0-12.876,3.596-16.744-9.211c0,0-2.244-12.667-5.818-15.593c0,0,25.427,4.445,23.309,23.927
	c0,0-5.989-7.675-12.664-13.254C-9.24,12.638,0.666,22.496,2.677,26.769z"/>
<path fill="#4D2A7C" d="M6.965,42.542c0,0-10.012-5.481-4.736-15.613c0,0,6.183-9.078,5.744-12.996c0,0,12.883,17.879-0.029,28.52
	c0,0,0.918-8.261,0.167-15.651C8.111,26.802,8.286,38.732,6.965,42.542z"/>
<path fill="#7F469B" d="M1.005,54.838c0,0-2.595-9.13,6.487-11.917c0,0,8.986-1.634,11.052-4.181c0,0-3.076,18.068-16.915,16.626
	c0,0,5.43-4.276,9.371-9.034C11,46.332,4.033,53.396,1.005,54.838z"/>
<g>
	<path d="M36.97,81.241c-3.625,3.563-7.439,4.961-12.08,4.961c-9.092,0-16.658-5.469-16.658-16.596
		c0-11.126,7.566-16.595,16.658-16.595c4.451,0,7.884,1.271,11.318,4.641l-4.897,5.15c-1.844-1.652-4.132-2.481-6.294-2.481
		c-5.215,0-9.029,3.814-9.029,9.285c0,5.978,4.069,9.155,8.903,9.155c2.48,0,4.96-0.699,6.868-2.606L36.97,81.241z"/>
	<path d="M72.195,69.608c0,9.028-6.168,16.341-16.34,16.341s-16.278-7.313-16.278-16.341c0-8.964,6.233-16.34,16.215-16.34
		S72.195,60.642,72.195,69.608z M47.333,69.608c0,4.767,2.861,9.221,8.52,9.221c5.66,0,8.522-4.454,8.522-9.221
		c0-4.705-3.309-9.283-8.522-9.283C50.26,60.325,47.333,64.901,47.333,69.608z"/>
	<path d="M85.233,40.805v44.443h-7.695V40.805H85.233z"/>
	<path d="M123.195,69.608c0,9.028-6.17,16.341-16.342,16.341s-16.276-7.313-16.276-16.341c0-8.964,6.231-16.34,16.212-16.34
		C116.773,53.268,123.195,60.642,123.195,69.608z M98.331,69.608c0,4.767,2.862,9.221,8.52,9.221c5.658,0,8.52-4.454,8.52-9.221
		c0-4.705-3.309-9.283-8.52-9.283C101.257,60.325,98.331,64.901,98.331,69.608z"/>
	<path d="M135.723,53.904l0.57,3.623c2.419-3.878,5.66-4.452,8.838-4.452c3.246,0,6.357,1.273,8.076,2.99l-3.497,6.74
		c-1.589-1.335-3.053-2.037-5.595-2.037c-4.07,0-7.822,2.165-7.822,7.948v16.533h-7.757V53.904H135.723z"/>
	<path fill="#58595B" d="M195.875,81.241c-3.628,3.563-7.442,4.961-12.082,4.961c-9.092,0-16.657-5.469-16.657-16.596
		c0-11.126,7.565-16.595,16.657-16.595c4.452,0,7.885,1.271,11.318,4.641l-4.896,5.15c-1.845-1.652-4.134-2.481-6.294-2.481
		c-5.216,0-9.028,3.814-9.028,9.285c0,5.978,4.069,9.155,8.9,9.155c2.479,0,4.961-0.699,6.868-2.606L195.875,81.241z"/>
	<path fill="#58595B" d="M224.171,53.904h7.438v31.345h-7.311l-0.382-4.579c-1.78,3.687-6.676,5.468-10.172,5.532
		c-9.284,0.063-16.147-5.66-16.147-16.656c0-10.813,7.182-16.468,16.338-16.407c4.197,0,8.203,1.971,9.984,5.087L224.171,53.904z
		 M205.349,69.545c0,5.974,4.134,9.538,9.284,9.538c12.208,0,12.208-19.013,0-19.013C209.482,60.071,205.349,63.566,205.349,69.545z
		"/>
	<path fill="#58595B" d="M261.241,85.249V68.842c0-4.767-2.604-8.39-7.566-8.39c-4.769,0-8.013,4.005-8.013,8.773v16.022h-7.692
		V53.838h6.932l0.51,4.258c3.178-3.116,6.358-4.703,10.299-4.703c7.38,0,13.29,5.531,13.29,15.385v16.466h-7.759V85.249z"/>
</g>
</svg>
