<?xml version="1.0" encoding="utf-8"?>
<!-- Generator: Adobe Illustrator 16.0.0, SVG Export Plug-In . SVG Version: 6.00 Build 0)  -->
<!DOCTYPE svg PUBLIC "-//W3C//DTD SVG 1.1//EN" "http://www.w3.org/Graphics/SVG/1.1/DTD/svg11.dtd">
<svg version="1.1" id="Layer_1" xmlns="http://www.w3.org/2000/svg" xmlns:xlink="http://www.w3.org/1999/xlink" x="0px" y="0px"
	 width="715.066px" height="118.258px" viewBox="-69.5 0 715.066 118.258" enable-background="new -69.5 0 715.066 118.258"
	 xml:space="preserve">
<path fill="#B4D337" d="M-16.986,52.406c-2.874,0-5.705,0-8.589,0c-0.011-0.178-0.028-0.342-0.028-0.506
	c-0.003-2.509,0.008-5.018-0.012-7.527c-0.003-0.438,0.099-0.593,0.564-0.588c2.509,0.021,5.018,0.021,7.527,0
	c0.452-0.004,0.576,0.125,0.572,0.574c-0.021,2.508-0.01,5.018-0.012,7.527C-16.964,52.053-16.979,52.22-16.986,52.406z"/>
<path fill="#B4D337" d="M-25.607,40.789c0-0.428,0-0.815,0-1.203c0-2.276,0.011-4.551-0.009-6.826
	c-0.003-0.416,0.124-0.532,0.528-0.529c2.54,0.015,5.081,0.008,7.621,0.006c0.28,0,0.515-0.015,0.512,0.396
	c-0.014,2.649-0.007,5.298-0.009,7.948c0,0.059-0.018,0.119-0.033,0.207C-19.852,40.789-22.693,40.789-25.607,40.789z"/>
<path fill="#B4D337" d="M-13.672,48.09c0-1.263,0.012-2.526-0.007-3.788c-0.006-0.384,0.113-0.515,0.504-0.514
	c2.54,0.014,5.081,0.013,7.622,0.002c0.348-0.001,0.462,0.124,0.461,0.463c-0.014,2.556-0.025,5.112-0.013,7.668
	c0.002,0.432-0.164,0.515-0.553,0.513c-2.51-0.014-5.019-0.015-7.528,0.003c-0.405,0.002-0.495-0.142-0.49-0.514
	c0.019-1.278,0.007-2.557,0.007-3.834C-13.67,48.09-13.671,48.09-13.672,48.09z"/>
<path fill="#B4D337" d="M-9.406,40.82c-1.276,0-2.553-0.01-3.829,0.006c-0.317,0.004-0.442-0.079-0.441-0.413
	c0.009-2.584,0.008-5.167,0-7.751c-0.001-0.334,0.14-0.426,0.45-0.425c2.553,0.007,5.105,0.009,7.658-0.003
	c0.394-0.002,0.46,0.184,0.46,0.516c-0.005,2.568-0.006,5.138,0.009,7.706c0.002,0.348-0.166,0.368-0.432,0.366
	c-1.292-0.007-2.584-0.004-3.876-0.004C-9.406,40.817-9.406,40.818-9.406,40.82z"/>
<path fill="#ED1F24" d="M-27.621,65.096c0,0,26.31-7.138,34.002,19.041c0,0,4.382,25.861,11.625,31.883
	c0,0-51.781-9.453-47.166-49.147c0,0,12.096,15.742,25.622,27.221C-3.537,94.092-23.584,73.838-27.621,65.096z"/>
<path fill="#F57E20" d="M-39.594,41.836c0,0,19.731,11.097,9.039,31.075c0,0-12.469,17.862-11.688,25.646
	c0,0-25.146-35.755,0.704-56.563c0,0-2.007,16.362-0.686,31.035C-42.227,73.027-42.297,49.365-39.594,41.836z"/>
<path fill="#F6EC13" d="M-30.695,21.901c0,0,5.128,18.383-13.161,23.899c0,0-18.086,3.197-22.265,8.297
	c0,0,6.361-36.298,34.173-33.264c0,0-10.96,8.546-18.929,18.073C-50.876,38.906-36.797,24.77-30.695,21.901z"/>
<path fill="#69BD45" d="M-12.696,17.136c0,0-7.813,13.9-21.886,6.373c0,0-12.584-8.779-18.066-8.228c0,0,25.179-17.719,39.841,0.485
	c0,0-11.526-1.411-21.86-0.478C-34.667,15.289-18,15.232-12.696,17.136z"/>
<path fill="#3953A4" d="M2.677,26.769c0,0-12.876,3.596-16.744-9.211c0,0-2.244-12.667-5.818-15.593c0,0,25.427,4.445,23.309,23.927
	c0,0-5.989-7.675-12.664-13.254C-9.24,12.638,0.666,22.496,2.677,26.769z"/>
<path fill="#4D2A7C" d="M6.965,42.542c0,0-10.012-5.481-4.736-15.613c0,0,6.183-9.078,5.744-12.996c0,0,12.883,17.879-0.029,28.52
	c0,0,0.918-8.261,0.167-15.651C8.111,26.802,8.286,38.732,6.965,42.542z"/>
<path fill="#7F469B" d="M1.005,54.838c0,0-2.595-9.13,6.487-11.917c0,0,8.986-1.634,11.052-4.181c0,0-3.076,18.068-16.915,16.626
	c0,0,5.43-4.276,9.371-9.034C11,46.332,4.033,53.396,1.005,54.838z"/>
<g>
	<path d="M36.97,81.241c-3.625,3.563-7.439,4.961-12.08,4.961c-9.092,0-16.658-5.47-16.658-16.597
		c0-11.125,7.566-16.595,16.658-16.595c4.451,0,7.884,1.271,11.318,4.641l-4.897,5.15c-1.844-1.651-4.132-2.481-6.294-2.481
		c-5.215,0-9.029,3.814-9.029,9.285c0,5.979,4.069,9.155,8.903,9.155c2.48,0,4.96-0.698,6.868-2.606L36.97,81.241z"/>
	<path d="M72.195,69.607c0,9.029-6.168,16.342-16.34,16.342s-16.278-7.313-16.278-16.342c0-8.963,6.233-16.339,16.215-16.339
		S72.195,60.643,72.195,69.607z M47.333,69.607c0,4.768,2.861,9.222,8.52,9.222c5.66,0,8.522-4.454,8.522-9.222
		c0-4.705-3.309-9.282-8.522-9.282C50.26,60.325,47.333,64.9,47.333,69.607z"/>
	<path d="M85.233,40.805v44.443h-7.695V40.805H85.233z"/>
	<path d="M123.195,69.607c0,9.029-6.17,16.342-16.342,16.342s-16.276-7.313-16.276-16.342c0-8.963,6.231-16.339,16.212-16.339
		C116.773,53.268,123.195,60.643,123.195,69.607z M98.331,69.607c0,4.768,2.862,9.222,8.52,9.222c5.658,0,8.52-4.454,8.52-9.222
		c0-4.705-3.309-9.282-8.52-9.282C101.257,60.325,98.331,64.9,98.331,69.607z"/>
	<path d="M135.723,53.904l0.57,3.623c2.419-3.878,5.66-4.452,8.838-4.452c3.246,0,6.357,1.273,8.076,2.99l-3.497,6.74
		c-1.589-1.334-3.053-2.037-5.595-2.037c-4.07,0-7.822,2.166-7.822,7.948v16.533h-7.757V53.904H135.723z"/>
	<path fill="#58595B" d="M195.875,81.241c-3.628,3.563-7.441,4.961-12.082,4.961c-9.092,0-16.657-5.47-16.657-16.597
		c0-11.125,7.565-16.595,16.657-16.595c4.452,0,7.885,1.271,11.318,4.641l-4.896,5.15c-1.845-1.651-4.134-2.481-6.294-2.481
		c-5.216,0-9.028,3.814-9.028,9.285c0,5.979,4.069,9.155,8.9,9.155c2.479,0,4.961-0.698,6.868-2.606L195.875,81.241z"/>
	<path fill="#58595B" d="M224.171,53.904h7.438v31.345h-7.312l-0.382-4.579c-1.779,3.688-6.676,5.469-10.172,5.532
		c-9.284,0.063-16.146-5.66-16.146-16.656c0-10.813,7.182-16.468,16.338-16.407c4.196,0,8.203,1.971,9.983,5.087L224.171,53.904z
		 M205.35,69.545c0,5.975,4.133,9.538,9.283,9.538c12.208,0,12.208-19.013,0-19.013C209.482,60.07,205.35,63.566,205.35,69.545z"/>
	<path fill="#58595B" d="M261.241,85.249V68.842c0-4.767-2.604-8.39-7.566-8.39c-4.769,0-8.013,4.005-8.013,8.772v16.022h-7.691
		V53.838h6.932l0.51,4.258c3.178-3.116,6.357-4.703,10.299-4.703c7.38,0,13.29,5.531,13.29,15.384v16.467h-7.759L261.241,85.249
		L261.241,85.249z"/>
</g>
<g>
	<path fill="#282828" d="M310.4,65.387l-1.449,1.805c-1.07-1.154-2.604-1.868-4.094-1.868c-2.939,0-5.249,2.268-5.249,5.165
		s2.31,5.186,5.249,5.186c1.47,0,2.981-0.672,4.094-1.742l1.471,1.638c-1.491,1.47-3.611,2.415-5.69,2.415
		c-4.304,0-7.643-3.255-7.643-7.475c0-4.179,3.38-7.391,7.727-7.391C306.895,63.119,308.973,63.979,310.4,65.387z"/>
	<path fill="#282828" d="M326.99,70.53c0,4.199-3.401,7.454-7.789,7.454c-4.389,0-7.79-3.255-7.79-7.454
		c0-4.22,3.401-7.411,7.79-7.411C323.589,63.119,326.99,66.331,326.99,70.53z M313.931,70.53c0,2.919,2.415,5.228,5.291,5.228
		s5.228-2.309,5.228-5.228s-2.352-5.187-5.228-5.187C316.324,65.344,313.931,67.611,313.931,70.53z"/>
	<path fill="#282828" d="M338.479,75.633v2.246h-8.84V63.182h2.478v12.451H338.479z"/>
	<path fill="#282828" d="M355.214,70.53c0,4.199-3.401,7.454-7.79,7.454c-4.388,0-7.789-3.255-7.789-7.454
		c0-4.22,3.401-7.411,7.789-7.411C351.813,63.119,355.214,66.331,355.214,70.53z M342.154,70.53c0,2.919,2.414,5.228,5.291,5.228
		s5.229-2.309,5.229-5.228s-2.352-5.187-5.229-5.187C344.548,65.344,342.154,67.611,342.154,70.53z"/>
	<path fill="#282828" d="M364.497,73.428c-0.21,0.021-0.44,0.021-0.672,0.021h-3.485v4.43h-2.478V63.182h5.963
		c3.759,0,5.921,1.826,5.921,5.018c0,2.352-1.092,4.011-3.045,4.767l3.297,4.913h-2.813L364.497,73.428z M363.825,71.223
		c2.268,0,3.569-0.965,3.569-2.96c0-1.932-1.302-2.855-3.569-2.855h-3.485v5.815H363.825z"/>
	<path fill="#282828" d="M373.045,77.879V63.182h2.478v14.697H373.045z"/>
	<path fill="#282828" d="M389.695,77.879l-7.831-10.54v10.54h-2.478V63.182h2.436l7.873,10.561V63.182h2.436v14.697H389.695z"/>
	<path fill="#282828" d="M408.238,70.656v5.417c-1.49,1.134-3.695,1.911-5.711,1.911c-4.346,0-7.727-3.255-7.727-7.454
		s3.422-7.411,7.873-7.411c2.1,0,4.199,0.797,5.648,2.057l-1.406,1.827c-1.135-1.05-2.709-1.68-4.242-1.68
		c-3.002,0-5.354,2.288-5.354,5.207c0,2.939,2.373,5.228,5.375,5.228c1.092,0,2.33-0.377,3.381-1.008v-4.094H408.238z"/>
	<path fill="#282828" d="M422.54,65.407v12.472h-2.478V65.407h-4.641v-2.226h11.779v2.226H422.54z"/>
	<path fill="#282828" d="M439.592,77.879V71.79h-7.79v6.089h-2.478V63.182h2.478v6.383h7.79v-6.383h2.477v14.697H439.592z"/>
	<path fill="#282828" d="M448.412,65.407v3.968h7.181v2.227h-7.181v4.052h8.272v2.226h-10.75V63.182h10.498v2.226H448.412z"/>
	<path fill="#282828" d="M477.223,65.387l-1.449,1.805c-1.07-1.154-2.604-1.868-4.094-1.868c-2.939,0-5.249,2.268-5.249,5.165
		s2.31,5.186,5.249,5.186c1.47,0,2.981-0.672,4.094-1.742l1.471,1.638c-1.491,1.47-3.611,2.415-5.69,2.415
		c-4.304,0-7.643-3.255-7.643-7.475c0-4.179,3.38-7.391,7.727-7.391C473.717,63.119,475.795,63.979,477.223,65.387z"/>
	<path fill="#282828" d="M481.74,74.562l-1.407,3.317h-2.583l6.488-14.697h2.541l6.424,14.697h-2.645l-1.407-3.317H481.74z
		 M485.436,65.827l-2.771,6.53h5.543L485.436,65.827z"/>
	<path fill="#282828" d="M505.467,77.879l-7.831-10.54v10.54h-2.478V63.182h2.436l7.873,10.561V63.182h2.436v14.697H505.467z"/>
	<path fill="#282828" d="M515.779,77.879l-5.857-14.697h2.666l4.535,11.947l4.577-11.947h2.583l-5.942,14.697H515.779z"/>
	<path fill="#282828" d="M527.33,74.562l-1.407,3.317h-2.583l6.488-14.697h2.541l6.424,14.697h-2.645l-1.407-3.317H527.33z
		 M531.025,65.827l-2.771,6.53h5.543L531.025,65.827z"/>
	<path fill="#282828" d="M550.596,64.588l-1.028,2.184c-1.596-0.965-3.191-1.364-4.304-1.364c-1.449,0-2.395,0.546-2.395,1.532
		c0,3.213,7.938,1.491,7.916,6.782c0,2.624-2.31,4.241-5.543,4.241c-2.31,0-4.493-0.945-6.005-2.33l1.071-2.143
		c1.512,1.387,3.4,2.143,4.976,2.143c1.722,0,2.751-0.651,2.751-1.785c0-3.275-7.938-1.449-7.938-6.677
		c0-2.52,2.163-4.095,5.354-4.095C547.363,63.076,549.231,63.686,550.596,64.588z"/>
	<path fill="#282828" d="M573.464,70.53c0,4.199-3.401,7.454-7.79,7.454c-4.388,0-7.789-3.255-7.789-7.454
		c0-4.22,3.401-7.411,7.789-7.411C570.063,63.119,573.464,66.331,573.464,70.53z M560.404,70.53c0,2.919,2.414,5.228,5.291,5.228
		s5.229-2.309,5.229-5.228s-2.352-5.187-5.229-5.187C562.798,65.344,560.404,67.611,560.404,70.53z"/>
	<path fill="#282828" d="M578.591,65.407v4.241h6.677v2.205h-6.677v6.025h-2.478V63.182h9.868l-0.021,2.226H578.591z"/>
	<path fill="#282828" d="M602.445,75.633v2.246h-8.84V63.182h2.478v12.451H602.445z"/>
	<path fill="#282828" d="M604.819,77.879V63.182h2.478v14.697H604.819z"/>
	<path fill="#282828" d="M613.639,65.407v4.241h6.677v2.205h-6.677v6.025h-2.478V63.182h9.868l-0.021,2.226H613.639z"/>
	<path fill="#282828" d="M625.714,65.407v3.968h7.181v2.227h-7.181v4.052h8.272v2.226h-10.75V63.182h10.498v2.226H625.714z"/>
</g>
<rect x="285.667" y="52.462" fill="#282828" width="1.334" height="33.5"/>
</svg>
