<?xml version="1.0" encoding="utf-8"?>
<!-- Generator: Adobe Illustrator 16.0.0, SVG Export Plug-In . SVG Version: 6.00 Build 0)  -->
<!DOCTYPE svg PUBLIC "-//W3C//DTD SVG 1.1//EN" "http://www.w3.org/Graphics/SVG/1.1/DTD/svg11.dtd">
<svg version="1.1" id="Layer_1" xmlns="http://www.w3.org/2000/svg" xmlns:xlink="http://www.w3.org/1999/xlink" x="0px" y="0px"
	 width="256px" height="256px" viewBox="0 0 256 256" enable-background="new 0 0 256 256" xml:space="preserve">
<path fill="#999999" d="M110.476,216.283c-0.524,0.525-1.229,0.717-1.442,1.717c-0.139,0-0.278,0-0.417,0
	c-0.132,0-0.248-0.33-0.398-0.467c-29.081-26.193-58.394-52.385-87.487-78.563C20.297,138.58,20,137.926,19,138.01
	c0-0.277,0-0.556,0-0.833c1-0.029,1.461-0.826,1.97-1.333c10.862-10.839,21.838-21.68,32.638-32.581
	c1.158-1.169,1.817-1.146,2.966,0.009c16.798,16.883,33.691,33.7,50.477,50.593c1.353,1.362,2.031,1.311,3.362-0.022
	c36.666-36.757,73.374-73.479,110.068-110.207c-22.894-25.083-55.849-40.822-92.484-40.822C58.858,2.813,2.812,58.861,2.812,128
	c0,69.137,56.049,125.187,125.188,125.187S253.187,197.137,253.187,128c0-16.187-3.072-31.655-8.666-45.855
	C199.834,126.853,155.15,171.564,110.476,216.283z"/>
</svg>
