<?xml version="1.0" encoding="utf-8"?>
<!-- Generator: Adobe Illustrator 16.0.0, SVG Export Plug-In . SVG Version: 6.00 Build 0)  -->
<!DOCTYPE svg PUBLIC "-//W3C//DTD SVG 1.1//EN" "http://www.w3.org/Graphics/SVG/1.1/DTD/svg11.dtd">
<svg version="1.1" id="Layer_1" xmlns="http://www.w3.org/2000/svg" xmlns:xlink="http://www.w3.org/1999/xlink" x="0px" y="0px"
	 width="256px" height="256px" viewBox="0 0 256 256" enable-background="new 0 0 256 256" xml:space="preserve">
<g>
	<title>Sky Blue Shield w/flank</title>
	<g>
		<title>Layer 1</title>
		<path id="svg_1" fill="#777777" d="M127.58,32.947h1.03l4.44,1.772c2.96,1.182,4.915,1.957,5.867,2.323
			c0.951,0.368,4.188,1.559,9.712,3.577c5.523,2.018,8.376,3.037,8.562,3.058c0.185,0.021,1.65,0.5,4.401,1.437
			c2.747,0.938,4.862,1.63,6.341,2.079c1.481,0.448,3.62,1.06,6.423,1.833c2.8,0.774,4.571,1.264,5.312,1.467
			c0.738,0.205,1.665,0.449,2.773,0.734c1.109,0.285,2.538,0.631,4.282,1.039c1.742,0.408,3.964,0.896,6.659,1.468
			c2.695,0.57,5.313,1.08,7.85,1.528c2.537,0.449,4.174,0.734,4.915,0.856c0.739,0.122,3.091,0.468,7.056,1.039
			c3.963,0.57,6.448,0.917,7.452,1.04c1.003,0.122,3.462,0.427,7.373,0.917c3.912,0.489,5.895,0.734,5.946,0.734
			s1.956,0.286,5.707,0.855c3.754,0.571,5.644,0.866,5.67,0.887l0.04,0.03l-0.239,9.109c-0.159,6.072-0.554,13.918-1.189,23.537
			c-0.633,9.619-1.135,16.344-1.506,20.175c-0.37,3.832-0.793,7.113-1.269,9.843c-0.476,2.731-1.029,5.32-1.665,7.764
			c-0.635,2.445-1.32,4.912-2.06,7.399c-0.741,2.484-1.402,4.666-1.983,6.54c-0.582,1.874-1.269,3.893-2.062,6.054
			c-0.793,2.159-1.269,3.462-1.427,3.912c-0.159,0.449-0.396,1.018-0.713,1.711c-0.318,0.693-0.688,1.549-1.111,2.568
			c-0.422,1.019-1.083,2.486-1.98,4.401c-0.899,1.916-1.64,3.445-2.221,4.585c-0.581,1.143-1.295,2.509-2.14,4.097
			c-0.847,1.59-1.93,3.505-3.251,5.746c-1.321,2.242-2.114,3.546-2.379,3.912c-0.264,0.368-1.227,1.702-2.895,4.006
			c-1.665,2.302-2.668,3.668-3.011,4.095c-0.344,0.43-1.163,1.51-2.458,3.241c-1.295,1.732-2.142,2.832-2.537,3.302
			c-0.397,0.47-1.004,1.203-1.824,2.201c-0.818,0.999-1.48,1.771-1.982,2.324c-0.502,0.55-1.083,1.202-1.744,1.955
			c-0.66,0.754-1.294,1.447-1.902,2.08c-0.606,0.631-1.084,1.161-1.427,1.588c-0.343,0.428-0.846,0.979-1.506,1.65
			c-0.66,0.673-1.295,1.345-1.903,2.018c-0.607,0.672-1.269,1.365-1.982,2.078c-0.713,0.715-1.321,1.324-1.823,1.835
			s-1.573,1.477-3.21,2.903c-1.639,1.428-3.568,3.058-5.787,4.892c-2.222,1.834-4.177,3.403-5.866,4.706
			c-1.692,1.306-2.815,2.132-3.371,2.478c-0.554,0.347-1.85,1.223-3.885,2.628c-2.034,1.406-3.276,2.263-3.727,2.568
			c-0.449,0.305-1.559,1.061-3.329,2.264c-1.771,1.2-2.934,1.976-3.488,2.321c-0.554,0.349-1.19,0.755-1.902,1.225
			c-0.715,0.468-1.706,1.109-2.973,1.924c-1.271,0.816-2.234,1.416-2.895,1.805c-0.66,0.388-1.295,0.732-1.903,1.04
			c-0.606,0.305-1.717,0.836-3.33,1.589c-1.611,0.753-2.667,1.263-3.169,1.528c-0.503,0.264-1.071,0.54-1.705,0.825
			c-0.636,0.284-1.295,0.61-1.982,0.978c-0.687,0.368-1.19,0.632-1.507,0.795c-0.317,0.162-1.004,0.448-2.062,0.856
			c-1.057,0.408-2.325,0.876-3.804,1.407c-1.481,0.528-2.512,0.875-3.093,1.039l-0.872,0.244l-0.951-0.185
			c-0.635-0.122-1.322-0.326-2.063-0.609c-0.739-0.287-1.981-0.775-3.726-1.47c-1.744-0.691-2.748-1.121-3.013-1.283
			c-0.265-0.163-0.938-0.52-2.021-1.068c-1.085-0.552-1.903-0.961-2.458-1.225c-0.554-0.264-1.639-0.773-3.25-1.528
			c-1.613-0.754-2.722-1.283-3.33-1.589c-0.608-0.305-1.242-0.652-1.903-1.039c-0.661-0.387-1.413-0.845-2.26-1.375
			c-0.846-0.531-1.969-1.254-3.369-2.171c-1.401-0.916-2.616-1.713-3.647-2.386c-1.03-0.672-2.536-1.69-4.518-3.056
			c-1.982-1.366-3.251-2.222-3.805-2.567c-0.556-0.347-1.771-1.162-3.647-2.446s-2.92-2.007-3.131-2.17
			c-0.211-0.163-1.149-0.888-2.814-2.169c-1.665-1.285-2.828-2.201-3.488-2.754c-0.661-0.549-2.115-1.771-4.361-3.667
			s-3.593-3.058-4.043-3.485c-0.449-0.427-1.11-1.059-1.982-1.894c-0.872-0.838-1.559-1.511-2.061-2.019
			c-0.502-0.509-1.005-1.039-1.507-1.589c-0.502-0.553-1.03-1.121-1.584-1.714c-0.555-0.59-1.057-1.119-1.507-1.589
			c-0.448-0.469-0.832-0.886-1.149-1.252c-0.316-0.368-0.752-0.846-1.308-1.438c-0.555-0.59-1.031-1.119-1.427-1.589
			c-0.396-0.468-0.925-1.08-1.585-1.834c-0.661-0.754-1.163-1.345-1.507-1.773c-0.343-0.428-0.898-1.1-1.665-2.017
			c-0.767-0.917-1.269-1.548-1.506-1.896c-0.238-0.345-0.898-1.222-1.982-2.628c-1.083-1.405-1.797-2.323-2.141-2.75
			c-0.343-0.43-1.202-1.603-2.577-3.517c-1.374-1.916-2.404-3.362-3.092-4.341c-0.687-0.979-1.294-1.895-1.822-2.752
			c-0.529-0.855-1.269-2.138-2.22-3.85c-0.952-1.714-1.427-2.59-1.427-2.631s-0.477-0.977-1.427-2.811s-1.691-3.281-2.219-4.343
			c-0.53-1.058-1.27-2.669-2.221-4.828c-0.951-2.16-1.903-4.462-2.854-6.908c-0.952-2.445-2.008-5.421-3.171-8.926
			c-1.162-3.507-1.982-6.114-2.458-7.826c-0.476-1.714-1.135-4.199-1.981-7.459c-0.846-3.26-1.348-5.4-1.507-6.419
			c-0.157-1.019-0.502-4.137-1.03-9.354c-0.529-5.218-0.872-9.15-1.031-11.799c-0.159-2.65-0.343-5.462-0.555-8.438
			c-0.211-2.975-0.502-7.845-0.873-14.611C9.795,73.562,9.61,68.774,9.61,65.961v-4.219l0.516-0.213
			c0.343-0.143,1.281-0.316,2.813-0.52c1.534-0.204,3.647-0.469,6.343-0.794c2.695-0.326,6.792-0.856,12.289-1.59
			c5.498-0.733,9.435-1.264,11.813-1.589c2.378-0.326,5.523-0.835,9.434-1.529c3.911-0.692,7.294-1.345,10.147-1.956
			c2.855-0.612,5.312-1.182,7.373-1.713c2.062-0.529,3.674-0.937,4.837-1.222c1.163-0.286,2.272-0.571,3.329-0.856
			s3.171-0.897,6.343-1.834c3.17-0.938,6.144-1.885,8.918-2.843c2.775-0.958,4.255-1.446,4.44-1.466
			c0.185-0.021,1.52-0.479,4.002-1.376c2.485-0.897,4.731-1.711,6.74-2.445c2.008-0.734,3.99-1.468,5.945-2.201
			c1.956-0.734,4.387-1.692,7.293-2.874l4.361-1.772H127.58z"/>
	</g>
	<g>
		<title>Layer 2</title>
		<path id="path2" fill="#999999" d="M127.565,0.874h0.847l3.648,2.035c2.433,1.357,4.04,2.245,4.822,2.666
			c0.782,0.421,3.443,1.789,7.982,4.105c4.537,2.315,6.885,3.485,7.036,3.508c0.152,0.023,1.357,0.573,3.616,1.648
			c2.26,1.076,3.998,1.871,5.213,2.386c1.216,0.515,2.975,1.217,5.278,2.104c2.302,0.889,3.756,1.45,4.365,1.684
			c0.609,0.235,1.368,0.515,2.279,0.842c0.913,0.328,2.085,0.726,3.52,1.193c1.433,0.469,3.258,1.029,5.472,1.684
			c2.217,0.656,4.366,1.24,6.452,1.755c2.085,0.515,3.431,0.841,4.04,0.982c0.607,0.141,2.54,0.538,5.799,1.193
			c3.259,0.654,5.299,1.052,6.126,1.192c0.824,0.141,2.843,0.492,6.06,1.053c3.212,0.562,4.841,0.841,4.884,0.841
			c0.045,0,1.609,0.327,4.693,0.981c3.083,0.656,4.638,0.995,4.657,1.018l0.033,0.036l-0.195,10.455
			c-0.13,6.969-0.457,15.973-0.976,27.013c-0.523,11.038-0.937,18.757-1.24,23.153c-0.304,4.397-0.651,8.163-1.043,11.296
			c-0.39,3.135-0.846,6.105-1.368,8.911c-0.52,2.807-1.085,5.637-1.694,8.491c-0.606,2.853-1.149,5.355-1.628,7.507
			c-0.478,2.149-1.042,4.466-1.693,6.945c-0.65,2.48-1.043,3.978-1.174,4.49c-0.129,0.515-0.325,1.17-0.586,1.965
			s-0.565,1.778-0.913,2.947c-0.347,1.169-0.889,2.854-1.627,5.053c-0.739,2.197-1.349,3.952-1.826,5.26
			c-0.478,1.312-1.063,2.878-1.758,4.702c-0.695,1.825-1.587,4.022-2.671,6.595c-1.088,2.572-1.739,4.069-1.956,4.49
			c-0.217,0.423-1.01,1.953-2.378,4.596c-1.369,2.644-2.193,4.209-2.478,4.701c-0.28,0.491-0.955,1.731-2.018,3.72
			c-1.065,1.988-1.76,3.25-2.086,3.789c-0.325,0.537-0.824,1.379-1.5,2.525c-0.673,1.144-1.215,2.034-1.628,2.666
			c-0.412,0.63-0.889,1.379-1.433,2.244c-0.544,0.866-1.065,1.662-1.564,2.386c-0.5,0.726-0.891,1.332-1.174,1.823
			c-0.28,0.492-0.694,1.124-1.237,1.896c-0.543,0.771-1.065,1.543-1.564,2.314c-0.5,0.771-1.043,1.566-1.628,2.386
			c-0.586,0.818-1.086,1.521-1.498,2.104c-0.413,0.585-1.293,1.695-2.638,3.334c-1.348,1.635-2.933,3.507-4.76,5.612
			c-1.823,2.105-3.43,3.905-4.82,5.402c-1.39,1.496-2.314,2.444-2.77,2.84c-0.457,0.399-1.52,1.404-3.192,3.019
			s-2.692,2.598-3.063,2.947c-0.369,0.35-1.28,1.216-2.736,2.595c-1.456,1.381-2.411,2.271-2.867,2.669
			c-0.456,0.396-0.978,0.863-1.564,1.402c-0.586,0.536-1.398,1.273-2.441,2.21c-1.045,0.935-1.836,1.625-2.379,2.067
			c-0.544,0.446-1.064,0.845-1.563,1.193c-0.5,0.354-1.412,0.96-2.736,1.826c-1.325,0.866-2.194,1.45-2.607,1.754
			c-0.413,0.305-0.879,0.619-1.401,0.947c-0.521,0.327-1.063,0.701-1.629,1.123c-0.563,0.42-0.976,0.725-1.237,0.91
			c-0.261,0.188-0.827,0.515-1.693,0.984c-0.869,0.467-1.911,1.005-3.129,1.613c-1.216,0.607-2.063,1.005-2.541,1.191l-0.716,0.281
			l-0.782-0.209c-0.521-0.141-1.086-0.374-1.694-0.704c-0.608-0.326-1.629-0.887-3.063-1.684c-1.434-0.795-2.259-1.285-2.476-1.474
			c-0.217-0.186-0.771-0.596-1.662-1.229c-0.891-0.63-1.563-1.098-2.02-1.401c-0.456-0.305-1.346-0.89-2.671-1.752
			c-1.326-0.866-2.238-1.475-2.737-1.825c-0.5-0.354-1.021-0.749-1.563-1.194c-0.543-0.444-1.163-0.971-1.857-1.579
			c-0.695-0.607-1.618-1.437-2.77-2.489c-1.151-1.051-2.15-1.965-2.997-2.737s-2.084-1.941-3.714-3.507
			c-1.629-1.567-2.671-2.551-3.127-2.947c-0.456-0.398-1.455-1.333-2.998-2.808c-1.542-1.473-2.399-2.302-2.573-2.49
			c-0.174-0.186-0.945-1.017-2.313-2.491c-1.368-1.473-2.323-2.526-2.867-3.158c-0.542-0.631-1.737-2.034-3.583-4.208
			c-1.846-2.176-2.954-3.51-3.323-3.999c-0.37-0.492-0.913-1.218-1.63-2.176c-0.716-0.959-1.281-1.729-1.693-2.314
			c-0.413-0.587-0.825-1.192-1.238-1.825c-0.413-0.632-0.847-1.285-1.303-1.964c-0.457-0.679-0.868-1.288-1.238-1.826
			c-0.37-0.539-0.684-1.017-0.946-1.436c-0.259-0.421-0.619-0.973-1.074-1.65c-0.457-0.679-0.848-1.287-1.174-1.824
			c-0.326-0.538-0.76-1.24-1.303-2.104c-0.543-0.865-0.956-1.546-1.237-2.035c-0.283-0.49-0.739-1.264-1.369-2.316
			c-0.629-1.051-1.042-1.775-1.238-2.176c-0.195-0.396-0.738-1.4-1.628-3.015s-1.477-2.666-1.76-3.158
			c-0.282-0.491-0.987-1.835-2.117-4.033c-1.129-2.199-1.977-3.858-2.541-4.981c-0.564-1.122-1.064-2.174-1.499-3.158
			c-0.434-0.982-1.042-2.456-1.825-4.421c-0.782-1.964-1.173-2.97-1.173-3.017s-0.39-1.122-1.172-3.227
			c-0.782-2.104-1.39-3.766-1.825-4.983c-0.435-1.215-1.042-3.061-1.824-5.542c-0.782-2.479-1.564-5.121-2.346-7.928
			c-0.781-2.808-1.65-6.222-2.606-10.245c-0.956-4.022-1.628-7.016-2.02-8.98c-0.391-1.965-0.934-4.817-1.629-8.56
			c-0.694-3.742-1.107-6.198-1.238-7.367c-0.131-1.169-0.413-4.748-0.847-10.735S32.37,84.742,32.24,81.701
			c-0.131-3.041-0.282-6.268-0.457-9.682c-0.173-3.414-0.413-9.004-0.716-16.769c-0.304-7.765-0.456-13.261-0.456-16.489V33.92
			l0.423-0.246c0.283-0.165,1.054-0.362,2.313-0.596c1.26-0.234,2.998-0.539,5.213-0.913c2.216-0.375,5.582-0.982,10.1-1.823
			c4.517-0.843,7.753-1.451,9.708-1.825c1.955-0.375,4.539-0.959,7.754-1.754c3.214-0.795,5.995-1.543,8.341-2.246
			c2.346-0.701,4.365-1.356,6.058-1.964c1.695-0.609,3.02-1.076,3.976-1.403c0.955-0.328,1.868-0.654,2.736-0.982
			c0.869-0.327,2.606-1.03,5.212-2.104c2.607-1.077,5.051-2.165,7.331-3.264c2.28-1.098,3.497-1.66,3.649-1.684
			c0.152-0.023,1.249-0.549,3.29-1.579c2.042-1.029,3.889-1.964,5.539-2.807c1.65-0.841,3.28-1.684,4.886-2.525
			c1.608-0.843,3.605-1.941,5.995-3.298l3.583-2.035H127.565z"/>
	</g>
</g>
</svg>
